<svg width="79" height="79" viewBox="0 0 79 79" fill="none" xmlns="http://www.w3.org/2000/svg">
<g clip-path="url(#clip0_103_42)">
<path d="M22.2524 28.6924C22.2524 30.3179 22.3575 31.6359 22.5414 32.6024C22.7516 33.569 23.0143 34.6234 23.3821 35.7656C23.5135 36.1171 23.566 36.4686 23.566 36.7761C23.566 37.2154 23.4084 37.6547 23.0668 38.0941L21.4117 39.9393C21.1753 40.2029 20.9388 40.3347 20.7286 40.3347C20.4659 40.3347 20.2032 40.115 19.9405 39.7196C19.5727 39.0606 19.2574 38.3577 18.9947 37.6547C18.732 36.9079 18.4692 36.0732 18.1802 35.0627C16.131 39.1045 13.5564 41.1255 10.4563 41.1255C8.24942 41.1255 6.4892 40.0711 5.20187 37.9623C3.91454 35.8535 3.25774 33.0418 3.25774 29.5271C3.25774 25.7928 4.0459 22.7614 5.64849 20.4769C7.25109 18.1924 9.37912 17.0501 12.0851 17.0501C12.9784 17.0501 13.8979 17.1819 14.87 17.4016C15.842 17.6212 16.8404 17.9727 17.8913 18.3681V15.161C17.8913 11.822 17.4709 9.49359 16.6565 8.13166C15.8158 6.76974 14.3971 6.11074 12.3741 6.11074C11.4546 6.11074 10.5088 6.28647 9.53675 6.68187C8.56469 7.07727 7.61889 7.56053 6.69937 8.1756C6.27902 8.48313 5.96376 8.65886 5.77985 8.74673C5.59595 8.83459 5.46459 8.87853 5.3595 8.87853C4.99169 8.87853 4.80779 8.4392 4.80779 7.5166V5.36387C4.80779 4.66094 4.86033 4.13375 4.99169 3.82621C5.12305 3.51868 5.3595 3.21115 5.72731 2.90362C6.64683 2.11282 7.75025 1.45382 9.03758 0.926625C10.3249 0.355494 11.6911 0.0918947 13.136 0.0918947C16.2624 0.0918947 18.5481 1.27809 20.0193 3.65048C21.4643 6.02287 22.1999 9.62539 22.1999 14.458V28.6924H22.2524ZM11.586 35.3702C12.4529 35.3702 13.3462 35.1066 14.292 34.5794C15.2378 34.0522 16.0785 33.0857 16.7878 31.7677C17.2082 30.933 17.5234 30.0104 17.6811 28.956C17.8387 27.9016 17.9438 26.6275 17.9438 25.1338V23.2886C17.1819 22.9811 16.3675 22.7175 15.5268 22.5417C14.6861 22.366 13.8716 22.2781 13.0572 22.2781C11.297 22.2781 10.0096 22.8493 9.14267 24.0355C8.27569 25.2217 7.85534 26.8911 7.85534 29.0878C7.85534 31.1526 8.17061 32.6903 8.82741 33.7447C9.45794 34.843 10.3775 35.3702 11.586 35.3702ZM32.6824 40.115C32.2095 40.115 31.8942 39.9832 31.6841 39.6757C31.4739 39.4121 31.29 38.797 31.1324 37.9623L24.9584 4.00195C24.8008 3.12328 24.722 2.55215 24.722 2.24462C24.722 1.54169 24.9322 1.14629 25.3525 1.14629H27.9272C28.4263 1.14629 28.7679 1.27809 28.9518 1.58562C29.162 1.84922 29.3196 2.46429 29.4772 3.29902L33.8909 32.3828L37.9894 3.29902C38.1207 2.42035 38.2784 1.84922 38.4885 1.58562C38.6987 1.32202 39.0665 1.14629 39.5394 1.14629H41.6412C42.1403 1.14629 42.4819 1.27809 42.6921 1.58562C42.9022 1.84922 43.0861 2.46429 43.1912 3.29902L47.3422 32.7342L51.8873 3.29902C52.0449 2.42035 52.2288 1.84922 52.4127 1.58562C52.6229 1.32202 52.9644 1.14629 53.4373 1.14629H55.8806C56.301 1.14629 56.5374 1.49776 56.5374 2.24462C56.5374 2.46429 56.5111 2.68395 56.4849 2.94755C56.4586 3.21115 56.4061 3.56261 56.301 4.04588L49.9694 38.0062C49.8118 38.8849 49.6279 39.456 49.4177 39.7196C49.2075 39.9832 48.866 40.1589 48.4194 40.1589H46.16C45.6608 40.1589 45.3193 40.0271 45.1091 39.7196C44.8989 39.4121 44.715 38.8409 44.6099 37.9623L40.5378 9.62539L36.4919 37.9184C36.3605 38.797 36.2029 39.3681 35.9927 39.6757C35.7825 39.9832 35.4147 40.115 34.9418 40.115H32.6824ZM66.442 41.3012C65.0758 41.3012 63.7097 41.0376 62.3961 40.5104C61.0825 39.9832 60.0579 39.4121 59.3748 38.7531C58.9544 38.3577 58.6655 37.9184 58.5604 37.523C58.4553 37.1276 58.4027 36.6882 58.4027 36.2928V34.0522C58.4027 33.1296 58.6129 32.6903 59.007 32.6903C59.1646 32.6903 59.3223 32.7342 59.4799 32.8221C59.6375 32.91 59.874 33.0857 60.1367 33.2614C61.0299 33.9204 62.002 34.4476 63.0266 34.7991C64.0775 35.1506 65.1021 35.3263 66.153 35.3263C67.8081 35.3263 69.0954 34.843 69.9887 33.8765C70.8819 32.91 71.3548 31.5041 71.3548 29.7028C71.3548 28.4727 71.1184 27.4623 70.6455 26.6275C70.1726 25.7928 69.2794 25.0459 67.992 24.343L64.1826 22.366C62.2647 21.3555 60.846 19.8618 59.9791 17.8848C59.1121 15.9518 58.6655 13.799 58.6655 11.5145C58.6655 9.66933 58.9019 8.0438 59.3748 6.63794C59.8477 5.23208 60.4782 4.00195 61.2664 3.03542C62.0545 2.02495 62.9478 1.27809 63.9987 0.750892C65.0496 0.223694 66.153 0.00402832 67.309 0.00402832C67.8869 0.00402832 68.4912 0.0479615 69.0692 0.179761C69.6734 0.31156 70.2251 0.487293 70.7769 0.663026C71.3023 0.882692 71.8015 1.10236 72.2744 1.36596C72.7473 1.62956 73.1151 1.89315 73.3778 2.15675C73.7456 2.50822 74.0083 2.85968 74.1659 3.25508C74.3236 3.60655 74.4024 4.08981 74.4024 4.70488V6.76974C74.4024 7.69233 74.1922 8.1756 73.7981 8.1756C73.588 8.1756 73.2464 7.99986 72.7998 7.6484C71.3023 6.50614 69.6209 5.93501 67.7556 5.93501C66.2581 5.93501 65.0758 6.3304 64.2614 7.16513C63.447 7.99986 63.0266 9.27393 63.0266 11.0752C63.0266 12.3053 63.2893 13.3597 63.8148 14.1944C64.3402 15.0292 65.3123 15.8639 66.7047 16.6108L70.4353 18.5878C72.3269 19.5982 73.6931 21.0041 74.5075 22.8053C75.3219 24.6066 75.716 26.6715 75.716 28.956C75.716 30.8451 75.4796 32.5585 75.0329 34.0522C74.56 35.546 73.9295 36.864 73.1151 37.9184C72.3006 39.0167 71.3286 39.8075 70.1989 40.3786C69.0166 40.9937 67.7818 41.3012 66.442 41.3012Z" fill="#252F3E"/>
<path d="M71.4074 62.6528C62.7639 73.3286 50.2059 78.996 39.4081 78.996C24.2754 78.996 10.6402 69.6382 0.34154 54.0859C-0.472893 52.8557 0.262724 51.1863 1.23479 52.1528C12.3741 62.9604 26.1144 69.5064 40.3276 69.5064C49.9169 69.5064 60.4519 66.1675 70.1463 59.3139C71.5913 58.2156 72.8261 60.8955 71.4074 62.6528Z" fill="black"/>
<path d="M75.0067 55.7992C73.9032 53.4268 67.703 54.6569 64.8919 55.2281C64.0512 55.4038 63.9199 54.1737 64.6817 53.2511C69.6209 47.4519 77.7389 49.1214 78.6847 51.0544C79.6305 53.0314 78.422 66.6068 73.7981 73.1089C73.0888 74.1193 72.4057 73.5921 72.721 72.2741C73.7719 67.9248 76.1101 58.1277 75.0067 55.7992Z" fill="black"/>
</g>
<defs>
<clipPath id="clip0_103_42">
<rect width="79" height="79" fill="white"/>
</clipPath>
</defs>
</svg>
