<svg width="48" height="48" viewBox="0 0 48 48" fill="none" xmlns="http://www.w3.org/2000/svg">
<path d="M48 0H0L4.23529 42.9474L24 48L43.7647 42.9474L48 0Z" fill="#0277BD"/>
<path d="M22.481 4.25317V46.7848L37.3826 42.5183L40.7088 4.25317H22.481Z" fill="#039BE5"/>
<path d="M34.6329 10.9368H22.481V16.2154H29.0243L28.6237 21.4941H22.481V26.7727H28.3566L27.956 32.7112L22.481 34.5587V40.1013L33.0304 36.6702L33.9652 21.4941L34.6329 10.9368Z" fill="white"/>
<path d="M22.481 10.9368V16.2154H10.7254L10.3291 10.9368H22.481ZM16.4051 21.4941L16.6692 26.7727H22.481V21.4941H16.4051ZM16.9334 29.4121H11.65L12.0462 36.6702L22.481 40.1013V34.5587L17.0655 32.7112L16.9334 29.4121Z" fill="#EEEEEE"/>
</svg>
