<svg width="79" height="71" viewBox="0 0 79 71" fill="none" xmlns="http://www.w3.org/2000/svg">
<path d="M44.7091 37.1901H52.8922ZM34.9673 37.1901H43.1504ZM25.4204 37.1901H33.6035ZM15.8735 37.1901H23.8617ZM6.13174 37.1901H14.3148ZM15.8735 28.0951H23.8617ZM25.4204 28.0951H33.6035ZM34.9673 28.0951H43.1504ZM34.9673 19H43.1504Z" fill="black"/>
<path d="M44.7091 37.1901H52.8922M34.9673 37.1901H43.1504M25.4204 37.1901H33.6035M15.8735 37.1901H23.8617M6.13174 37.1901H14.3148M15.8735 28.0951H23.8617M25.4204 28.0951H33.6035M34.9673 28.0951H43.1504M34.9673 19H43.1504" stroke="black" stroke-width="38"/>
<path d="M79 37.5855C79 37.5855 75.493 34.2243 68.2841 35.4106C67.5047 29.6768 61.4648 26.3156 61.4648 26.3156C61.4648 26.3156 55.8146 33.2357 59.9062 40.9467C58.7372 41.5399 56.7888 42.3308 53.8663 42.3308H0.286648C-0.687528 46.0874 -0.687527 71 26.1997 71C45.4884 71 59.9062 61.9049 66.7254 45.2965C76.8568 46.0874 79 37.5855 79 37.5855Z" fill="black"/>
</svg>
