<svg width="79" height="79" viewBox="0 0 79 79" fill="none" xmlns="http://www.w3.org/2000/svg">
<path d="M77.5101 35.9802L43.018 1.48994C41.0328 -0.496482 37.8111 -0.496482 35.8234 1.48994L28.661 8.6524L37.7469 17.7383C39.8583 17.0249 42.2795 17.5035 43.9626 19.1866C45.6537 20.8804 46.1289 23.3223 45.3982 25.4405L54.1545 34.1972C56.273 33.4673 58.7174 33.9395 60.4094 35.6343C62.7741 37.9981 62.7741 41.8293 60.4094 44.1947C58.044 46.5604 54.2128 46.5604 51.8462 44.1947C50.0675 42.4141 49.628 39.8018 50.5285 37.6105L42.3625 29.4445L42.3616 50.9341C42.9536 51.2268 43.4942 51.6134 43.9626 52.0789C46.3273 54.4428 46.3273 58.2743 43.9626 60.6415C41.5972 63.0059 37.7642 63.0059 35.4022 60.6415C33.0374 58.2743 33.0374 54.4431 35.4022 52.0793C35.9689 51.5123 36.6424 51.0633 37.3837 50.7582V29.0683C36.6413 28.7653 35.9674 28.316 35.4022 27.7473C33.6105 25.958 33.1797 23.3291 34.0978 21.1292L25.1411 12.1716L1.49051 35.8207C-0.496836 37.809 -0.496836 41.031 1.49051 43.0177L35.9833 77.5086C37.9691 79.4953 41.1902 79.4953 43.1784 77.5086L77.5098 43.1779C79.4965 41.1905 79.4968 37.9666 77.5101 35.9802Z" fill="black"/>
</svg>
