<svg width="36" height="37" viewBox="0 0 36 37" fill="none" xmlns="http://www.w3.org/2000/svg">
<path d="M8.74403 29.1089C8.25566 28.7743 7.83566 28.3476 7.34402 27.7436C7.08884 27.4226 6.83596 27.0997 6.58542 26.7749C5.8317 25.8128 5.35635 25.3695 4.86473 25.187C4.45823 25.0371 4.12637 24.7273 3.94212 24.3259C3.75787 23.9244 3.73635 23.4641 3.88229 23.0463C4.02821 22.6285 4.32964 22.2874 4.72026 22.0981C5.11089 21.9087 5.5587 21.8866 5.96519 22.0366C7.18938 22.4883 8.01798 23.2664 9.13472 24.6935C8.9817 24.4978 9.68821 25.4079 9.83961 25.5953C10.1489 25.9751 10.3768 26.206 10.5559 26.3281C10.888 26.5574 11.5115 26.656 12.428 26.5624C12.4655 25.9232 12.581 25.3025 12.7568 24.7303C7.92519 23.5157 5.1903 20.3133 5.1903 14.029C5.1903 11.9543 5.79263 10.0871 6.91263 8.52107C6.55775 7.02529 6.61147 5.21664 7.40426 3.18045C7.49423 2.95012 7.63293 2.74324 7.81031 2.57483C7.9877 2.40641 8.19933 2.28065 8.42984 2.20669C8.5617 2.16653 8.63658 2.14812 8.76844 2.12805C10.0757 1.92226 11.9217 2.41249 14.3278 3.96179C15.7616 3.61728 17.2294 3.44435 18.7019 3.44648C20.1866 3.44648 21.6614 3.62048 23.0713 3.96179C25.4756 2.40078 27.325 1.91055 28.6419 2.12805C28.7803 2.1498 28.8975 2.17824 28.9968 2.21171C29.2228 2.2883 29.4298 2.41488 29.603 2.58255C29.7763 2.75021 29.9116 2.95487 29.9996 3.18212C30.7924 5.21664 30.8461 7.02529 30.4912 8.5194C31.6161 10.0854 32.2136 11.9409 32.2136 14.029C32.2136 20.3149 29.4885 23.5072 24.6569 24.7236C24.8603 25.4179 24.9661 26.1944 24.9661 27.0325C24.9662 28.5473 24.9598 30.062 24.9465 31.5767C25.3122 31.6587 25.6391 31.8676 25.8724 32.1684C26.1057 32.469 26.2311 32.8431 26.2275 33.2277C26.2239 33.6123 26.0914 33.9838 25.8525 34.2798C25.6136 34.5758 25.2827 34.7781 24.9156 34.8527C23.0615 35.2341 21.6875 33.9626 21.6875 32.3012L21.6908 31.555L21.6989 30.3755C21.7071 29.1909 21.7103 28.1369 21.7103 27.0325C21.7103 25.8663 21.4124 25.105 21.0185 24.7571C19.9424 23.8035 20.4877 21.988 21.8976 21.8258C26.7275 21.2686 28.9577 19.3462 28.9577 14.029C28.9577 12.4312 28.4498 11.1111 27.4715 10.0068C27.2654 9.77464 27.127 9.48751 27.0723 9.17829C27.0176 8.86907 27.0487 8.55026 27.1621 8.25838C27.4324 7.56571 27.548 6.65721 27.3185 5.55796L27.3022 5.56298C26.5029 5.79555 25.4952 6.29915 24.2775 7.15078C24.0812 7.28774 23.8581 7.37891 23.6238 7.41793C23.3895 7.45694 23.1498 7.44286 22.9214 7.37665C21.5473 6.98562 20.1277 6.78916 18.7019 6.79273C17.2531 6.79273 15.8173 6.99183 14.4824 7.37832C14.2549 7.444 14.0162 7.45797 13.7828 7.41926C13.5495 7.38054 13.3271 7.29006 13.1312 7.15412C11.907 6.30585 10.8945 5.80391 10.0903 5.56967C9.85589 6.66223 9.97147 7.56739 10.2401 8.25838C10.3537 8.55011 10.3851 8.86883 10.3307 9.17804C10.2763 9.48726 10.1383 9.77447 9.9324 10.0068C8.96054 11.101 8.44612 12.4462 8.44612 14.029C8.44612 19.3362 10.678 21.2702 15.4819 21.8258C16.8901 21.988 17.4371 23.795 16.3675 24.7504C16.055 25.0315 15.6691 25.9751 15.6691 27.0325V32.3029C15.6691 33.9526 14.3099 35.1891 12.4785 34.8594C12.1069 34.7923 11.7695 34.5947 11.5241 34.3005C11.2785 34.0061 11.1401 33.6332 11.1324 33.2456C11.1247 32.8579 11.2482 32.4796 11.4819 32.1753C11.7155 31.8708 12.0447 31.6593 12.4134 31.5767V29.9204C10.9319 30.0225 9.70775 29.7731 8.74403 29.1089Z" fill="#00C6CA"/>
</svg>
