<svg width="21" height="17" viewBox="0 0 21 17" fill="none" xmlns="http://www.w3.org/2000/svg">
<rect width="21" height="17" fill="#0D8485"/>
<path d="M5.10069 13.3744C4.81581 13.2207 4.57081 13.0246 4.28402 12.7471C4.13516 12.5996 3.98765 12.4512 3.8415 12.302C3.40183 11.86 3.12454 11.6563 2.83776 11.5724C2.60064 11.5035 2.40705 11.3612 2.29958 11.1768C2.1921 10.9923 2.17954 10.7808 2.26467 10.5889C2.34979 10.3969 2.52563 10.2402 2.75349 10.1532C2.98136 10.0662 3.24258 10.056 3.4797 10.125C4.19381 10.3325 4.67716 10.69 5.32859 11.3457C5.23933 11.2558 5.65146 11.6739 5.73978 11.76C5.9202 11.9345 6.05315 12.0406 6.15761 12.0967C6.35133 12.2021 6.71502 12.2474 7.24967 12.2044C7.27152 11.9107 7.33892 11.6255 7.44149 11.3626C4.62303 10.8045 3.02768 9.33318 3.02768 6.44578C3.02768 5.49256 3.37904 4.63465 4.03237 3.91512C3.82536 3.22787 3.8567 2.39686 4.31915 1.46132C4.37164 1.35549 4.45255 1.26044 4.55602 1.18306C4.6595 1.10568 4.78295 1.0479 4.91741 1.01391C4.99433 0.995464 5.03801 0.987007 5.11493 0.977784C5.87747 0.883232 6.95435 1.10847 8.35787 1.82031C9.19427 1.66202 10.0505 1.58257 10.9094 1.58355C11.7755 1.58355 12.6358 1.6635 13.4582 1.82031C14.8608 1.10309 15.9396 0.877851 16.7078 0.977784C16.7885 0.987777 16.8569 1.00085 16.9148 1.01622C17.0466 1.05141 17.1674 1.10957 17.2684 1.18661C17.3695 1.26364 17.4484 1.35768 17.4998 1.46209C17.9622 2.39686 17.9936 3.22787 17.7865 3.91435C18.4427 4.63388 18.7913 5.4864 18.7913 6.44578C18.7913 9.33392 17.2016 10.8006 14.3832 11.3595C14.5018 11.6785 14.5636 12.0353 14.5636 12.4204C14.5636 13.1164 14.5599 13.8123 14.5522 14.5082C14.7654 14.5459 14.9561 14.6419 15.0922 14.7801C15.2284 14.9182 15.3015 15.0901 15.2994 15.2668C15.2973 15.4435 15.22 15.6142 15.0806 15.7502C14.9412 15.8862 14.7482 15.9792 14.5341 16.0134C13.4525 16.1887 12.6511 15.6045 12.6511 14.8411L12.653 14.4983L12.6577 13.9563C12.6625 13.4121 12.6643 12.9278 12.6643 12.4204C12.6643 11.8846 12.4905 11.5348 12.2608 11.3749C11.6331 10.9368 11.9512 10.1026 12.7736 10.0281C15.5911 9.7721 16.892 8.88884 16.892 6.44578C16.892 5.71165 16.5957 5.10512 16.025 4.59775C15.9048 4.49108 15.8241 4.35916 15.7922 4.21708C15.7602 4.07501 15.7784 3.92853 15.8446 3.79442C16.0023 3.47617 16.0697 3.05875 15.9358 2.55369L15.9263 2.556C15.46 2.66285 14.8722 2.89424 14.1619 3.28552C14.0474 3.34845 13.9172 3.39034 13.7805 3.40827C13.6439 3.42619 13.5041 3.41972 13.3708 3.3893C12.5693 3.20964 11.7412 3.11938 10.9094 3.12102C10.0643 3.12102 9.22675 3.21249 8.44804 3.39007C8.31535 3.42025 8.17609 3.42667 8.03999 3.40888C7.90388 3.39109 7.77414 3.34952 7.65989 3.28706C6.94576 2.89731 6.35512 2.66669 5.88602 2.55907C5.74927 3.06105 5.8167 3.47694 5.97338 3.79442C6.03967 3.92846 6.05799 4.0749 6.02625 4.21697C5.99452 4.35904 5.91399 4.491 5.79391 4.59775C5.22699 5.1005 4.92691 5.71855 4.92691 6.44578C4.92691 8.88422 6.22883 9.77284 9.03112 10.0281C9.85255 10.1026 10.1716 10.9329 9.54772 11.3718C9.36542 11.501 9.14032 11.9345 9.14032 12.4204V14.8419C9.14032 15.5999 8.34744 16.168 7.27913 16.0165C7.06237 15.9857 6.86556 15.8949 6.72237 15.7597C6.57911 15.6245 6.49839 15.4531 6.4939 15.275C6.48942 15.0969 6.56148 14.9231 6.69776 14.7833C6.83406 14.6434 7.02608 14.5462 7.24113 14.5082V13.7472C6.37696 13.7941 5.66286 13.6795 5.10069 13.3744Z" fill="#0CC7C9"/>
</svg>
