<svg width="21" height="17" viewBox="0 0 21 17" fill="none" xmlns="http://www.w3.org/2000/svg">
<rect width="21" height="17" fill="#0D8485"/>
<path d="M8.42383 0C9.15442 0 9.88501 0 10.6411 0.00875729C10.7405 0.0780251 10.8325 0.0431019 10.9155 0.0553981C12.1614 0.239912 13.3346 0.604166 14.4204 1.18663C15.339 1.67943 16.137 2.30031 16.8251 3.03056C17.4037 3.64466 17.8707 4.32603 18.2297 5.06313C18.4536 5.52305 18.6362 5.99569 18.7635 6.48663C18.8706 6.89977 18.9481 7.31567 19 7.73633C19 8.24614 19 8.75595 18.9997 9.29458C18.9648 9.55204 18.9414 9.7826 18.8933 10.009C18.6893 10.9698 18.3346 11.8814 17.7894 12.7334C17.1501 13.7324 16.3294 14.586 15.3048 15.2836C14.1015 16.103 12.7578 16.6346 11.2725 16.8881C11.0775 16.9214 10.8656 16.8942 10.6875 17C9.93217 17 9.17684 17 8.39466 16.9922C8.32736 16.9729 8.28746 16.9535 8.24636 16.9512C7.91403 16.9324 7.58957 16.8667 7.26914 16.7966C6.45961 16.6195 5.68691 16.3533 4.95048 15.9998C4.26771 15.672 3.64088 15.2739 3.07384 14.8063C2.11722 14.0174 1.3539 13.0993 0.821919 12.0304C0.477142 11.3376 0.229679 10.6216 0.089814 9.87368C0.0705636 9.77074 0.102792 9.64855 0 9.5625C0 8.85347 2.21189e-09 8.14445 0.010121 7.41216C0.101384 7.22513 0.0931727 7.04559 0.132062 6.87426C0.536361 5.09317 1.43847 3.56037 2.92886 2.30958C3.40382 1.91099 3.91237 1.55803 4.46022 1.24715C5.21608 0.818225 6.03368 0.513735 6.89037 0.290271C7.39311 0.159136 7.91255 0.0963246 8.42383 0ZM1.24334 8.81241C1.09505 8.81268 0.946752 8.81191 0.798489 8.81366C0.717766 8.81461 0.661849 8.82625 0.664524 8.92629C0.673974 9.27978 0.730696 9.62934 0.804498 9.97349C1.07746 11.2464 1.67172 12.3909 2.56871 13.4098C2.64959 13.5017 2.71953 13.5113 2.83317 13.4563C3.11529 13.3198 3.40632 13.1993 3.7052 13.0933C4.06596 12.9654 4.42628 12.8387 4.80391 12.754C4.90724 12.7309 5.02696 12.7082 4.97684 12.5567C4.8162 12.0712 4.70634 11.576 4.61554 11.0758C4.49309 10.4014 4.40449 9.72541 4.40152 9.04145C4.40056 8.81961 4.39143 8.8126 4.13493 8.81256C3.18342 8.81241 2.2319 8.81245 1.24334 8.81241ZM14.1471 12.0649C14.1023 12.2195 14.0598 12.3746 14.0121 12.5285C13.9752 12.6473 14.0142 12.7124 14.1542 12.7445C14.3388 12.7869 14.5201 12.8422 14.6999 12.8995C15.2059 13.0605 15.703 13.2409 16.1811 13.4612C16.2571 13.4963 16.3216 13.5096 16.3901 13.432C16.9725 12.7734 17.4377 12.0553 17.7661 11.2684C18.0696 10.5412 18.2406 9.78732 18.3162 9.01507C18.3283 8.89069 18.2963 8.81133 18.1315 8.81166C17.0183 8.81395 15.905 8.81332 14.7917 8.81344C14.6663 8.81346 14.6087 8.8589 14.5943 8.98049C14.5447 9.39676 14.5489 9.81556 14.494 10.2323C14.4139 10.84 14.3106 11.4425 14.1471 12.0649ZM14.4105 6.16418C14.52 6.79024 14.5542 7.42234 14.5972 8.05363C14.605 8.16717 14.6767 8.18858 14.7823 8.18851C15.9012 8.18778 17.0201 8.18716 18.1391 8.18937C18.2783 8.18964 18.3279 8.13564 18.3158 8.01678C18.2638 7.5069 18.1823 7.00055 18.0326 6.50648C17.7227 5.48402 17.2228 4.5431 16.4899 3.70594C16.3026 3.49197 16.3607 3.46991 16.0327 3.61945C15.4988 3.8629 14.9434 4.05861 14.371 4.21634C13.9753 4.32539 13.9743 4.32565 14.0778 4.69678C14.2104 5.17208 14.3101 5.65335 14.4105 6.16418ZM4.06645 4.06007C3.63731 3.90656 3.20794 3.75341 2.80496 3.54837C2.71619 3.5032 2.66171 3.51458 2.58938 3.59285C1.96128 4.27256 1.50424 5.03795 1.171 5.86269C0.887214 6.565 0.70357 7.28813 0.678751 8.03934C0.675292 8.14401 0.698587 8.19049 0.82629 8.19015C1.95752 8.18713 3.08876 8.18736 4.22 8.18854C4.34328 8.18867 4.4015 8.14543 4.40229 8.03186C4.40399 7.78937 4.41491 7.5475 4.43245 7.30498C4.45949 6.93089 4.50202 6.55843 4.56269 6.18901C4.6566 5.61725 4.78525 5.05002 4.96309 4.49376C5.0078 4.35389 4.95073 4.30386 4.81744 4.26844C4.57544 4.20414 4.33551 4.13364 4.06645 4.06007ZM9.07712 12.161C9.1523 12.1279 9.15167 12.0659 9.15165 12.0042C9.15136 10.9979 9.15001 9.99164 9.15199 8.98537C9.15224 8.85627 9.08969 8.81098 8.94935 8.81127C7.73819 8.8138 6.52702 8.81472 5.31587 8.81073C5.14224 8.81016 5.08543 8.87307 5.09653 9.02004C5.12761 9.43143 5.15121 9.84264 5.20257 10.2533C5.29034 10.9551 5.45224 11.6416 5.6419 12.3254C5.6914 12.5038 5.7769 12.5391 5.95886 12.4998C6.97369 12.2809 8.01142 12.2289 9.07712 12.161ZM7.06933 8.18832C7.6933 8.18816 8.31728 8.18639 8.94123 8.18913C9.07279 8.18971 9.15319 8.16322 9.1528 8.02536C9.14999 7.01934 9.15001 6.01331 9.15214 5.00728C9.15243 4.86856 9.07892 4.82669 8.93408 4.82684C8.6758 4.82712 8.41814 4.81746 8.15945 4.80146C7.39736 4.75434 6.64552 4.6518 5.89921 4.51452C5.73802 4.48487 5.68646 4.53612 5.65494 4.6579C5.55928 5.02747 5.44784 5.39332 5.36975 5.76704C5.21692 6.49851 5.13374 7.23567 5.0957 7.97822C5.0876 8.13631 5.14535 8.19412 5.32716 8.19151C5.89538 8.18333 6.46385 8.18839 7.06933 8.18832ZM11.5596 8.81287C11.0653 8.81287 10.571 8.81797 10.0769 8.81016C9.89875 8.80734 9.84216 8.86173 9.84419 9.0215C9.85261 9.68473 9.84759 10.3481 9.84764 11.0114C9.84767 11.3431 9.85011 11.6748 9.84695 12.0064C9.84594 12.1132 9.88243 12.1671 10.014 12.1751C10.2103 12.1871 10.406 12.2018 10.6029 12.2096C10.9526 12.2234 11.3036 12.2427 11.6498 12.2863C12.1298 12.3467 12.6067 12.4279 13.0831 12.5086C13.2233 12.5323 13.2781 12.4992 13.3151 12.3739C13.6417 11.2686 13.8625 10.1508 13.8713 9.00294C13.8726 8.83908 13.8169 8.8086 13.6539 8.81006C12.9682 8.81621 12.2824 8.8128 11.5596 8.81287ZM12.158 4.66274C12.1099 4.67247 12.0624 4.68655 12.0138 4.69127C11.3654 4.75422 10.7192 4.84577 10.064 4.82703C9.9099 4.82262 9.84366 4.86381 9.8446 5.01486C9.85085 6.01032 9.8497 7.00584 9.84613 8.00132C9.84566 8.13446 9.89429 8.19036 10.0494 8.18994C11.2671 8.18665 12.4848 8.18707 13.7024 8.18948C13.8281 8.18973 13.869 8.15815 13.8703 8.03688C13.8752 7.57267 13.8206 7.11406 13.7591 6.65415C13.6677 5.96968 13.5231 5.29622 13.3091 4.63413C13.2755 4.52994 13.224 4.49114 13.0958 4.51503C12.7956 4.57102 12.4921 4.61343 12.158 4.66274ZM8.95875 0.661102C8.27345 0.841662 7.73176 1.20316 7.27702 1.69145C6.71237 2.29775 6.333 2.99291 6.00278 3.715C5.94896 3.83269 5.97225 3.8924 6.13414 3.91287C6.52315 3.96204 6.90762 4.04044 7.29686 4.08763C7.85171 4.15491 8.40846 4.21179 8.97054 4.20438C9.09436 4.20275 9.15421 4.15802 9.15197 4.04577C9.14977 3.93517 9.15204 3.82449 9.15203 3.71385C9.15198 2.75678 9.15193 1.7997 9.15165 0.842632C9.15161 0.740287 9.16214 0.629368 8.95875 0.661102ZM7.25352 15.3081C7.42753 15.4642 7.59468 15.627 7.77705 15.7747C8.11049 16.0449 8.49434 16.2408 8.92891 16.3502C9.1284 16.4004 9.15143 16.3812 9.15165 16.1907C9.15245 15.4992 9.15209 14.8077 9.15196 14.1162C9.15189 13.7345 9.15021 13.3528 9.15189 12.9711C9.15238 12.8606 9.12305 12.7833 8.97391 12.8014C8.54687 12.8532 8.11513 12.8447 7.68645 12.89C7.14817 12.947 6.61494 13.0216 6.08552 13.1237C5.97945 13.1442 5.94775 13.1777 5.99177 13.2698C6.08135 13.4573 6.1568 13.6505 6.25306 13.8351C6.5222 14.3513 6.83595 14.8442 7.25352 15.3081ZM9.84794 3.73495C9.84799 3.82901 9.85391 3.92343 9.84668 4.01704C9.83635 4.15079 9.89306 4.21162 10.0488 4.20499C10.2763 4.1953 10.5034 4.1927 10.7314 4.17779C11.4385 4.13154 12.1354 4.03524 12.8307 3.91591C13.0308 3.88157 13.0222 3.81564 12.964 3.68515C12.6724 3.03154 12.3276 2.40302 11.8396 1.84744C11.3793 1.32358 10.8436 0.882497 10.105 0.688872C9.87599 0.628833 9.84814 0.64754 9.84803 0.863593C9.84756 1.80969 9.8479 2.75578 9.84794 3.73495ZM9.84793 15.8874C9.84794 15.9869 9.84751 16.0864 9.84807 16.1859C9.84913 16.3742 9.87368 16.391 10.0702 16.3419C10.7116 16.1817 11.2231 15.8393 11.6438 15.3947C12.2223 14.7834 12.6422 14.0865 12.9592 13.337C13.0242 13.1834 12.9654 13.1273 12.8248 13.1026C12.1979 12.9926 11.5668 12.9106 10.9299 12.8578C10.6525 12.8347 10.3756 12.8447 10.0998 12.8246C9.85074 12.8064 9.84815 12.8006 9.84807 13.0185C9.8477 13.9638 9.84792 14.909 9.84793 15.8874ZM15.4253 13.8433C14.9505 13.6445 14.457 13.4915 13.9581 13.349C13.7912 13.3014 13.7264 13.3463 13.6757 13.4825C13.404 14.2116 12.9857 14.8714 12.4651 15.4797C12.2905 15.6836 12.098 15.8752 11.9129 16.0733C11.9572 16.1033 11.993 16.0883 12.0267 16.079C12.8147 15.8619 13.5571 15.5569 14.2548 15.1627C14.7098 14.9056 15.119 14.5965 15.5266 14.2852C15.8544 14.0349 15.8528 14.0333 15.4253 13.8433ZM3.79572 13.7446C3.59464 13.8245 3.38655 13.8923 3.1821 14.0205C4.25823 15.042 5.55471 15.7001 7.03631 16.0885C6.94958 15.9648 6.85474 15.8514 6.75077 15.7453C6.08754 15.0682 5.62076 14.291 5.28723 13.4466C5.24242 13.3332 5.18694 13.3092 5.05666 13.3431C4.63634 13.4525 4.22599 13.5851 3.79572 13.7446ZM5.09584 1.65827C4.39494 2.02578 3.7498 2.4562 3.16863 2.99267C3.21064 3.01806 3.22513 3.02871 3.24137 3.03638C3.8325 3.31525 4.45339 3.52553 5.09628 3.68698C5.21689 3.71727 5.25616 3.65798 5.28274 3.57975C5.33488 3.42628 5.40708 3.28039 5.47454 3.13226C5.77947 2.46268 6.19808 1.85748 6.72108 1.30635C6.8221 1.19989 6.95688 1.10837 7.00658 0.956534C6.33516 1.10603 5.70837 1.3345 5.09584 1.65827ZM12.9998 2.23341C13.2692 2.62437 13.4793 3.04058 13.6525 3.47185C13.7547 3.72635 13.7503 3.72639 14.0453 3.64382C14.5872 3.49217 15.1173 3.3149 15.6256 3.08623C15.8005 3.00752 15.8098 2.99944 15.6749 2.87571C15.2035 2.44305 14.6692 2.08058 14.0934 1.76872C13.4129 1.40015 12.696 1.10248 11.8982 0.915572C12.2984 1.34266 12.6798 1.75276 12.9998 2.23341Z" fill="#0CC7C9"/>
</svg>
