<svg width="19" height="19" viewBox="0 0 19 19" fill="none" xmlns="http://www.w3.org/2000/svg">
<g clip-path="url(#clip0_9_2)">
<mask id="mask0_9_2" style="mask-type:luminance" maskUnits="userSpaceOnUse" x="0" y="0" width="19" height="19">
<path d="M19 0H0V19H19V0Z" fill="white"/>
</mask>
<g mask="url(#mask0_9_2)">
<path d="M19 0H0V19H19V0Z" fill="#13131F"/>
<path d="M8.42383 0C9.15442 0 9.88501 0 10.6411 0.00978756C10.7405 0.0872045 10.8325 0.0481727 10.9155 0.0619155C12.1614 0.268137 13.3346 0.675244 14.4204 1.32624C15.339 1.87701 16.137 2.57093 16.8251 3.3871C17.4037 4.07345 17.8707 4.83498 18.2297 5.6588C18.4536 6.17282 18.6362 6.70107 18.7635 7.24976C18.8706 7.71151 18.9481 8.17634 19 8.64648C19 9.21627 19 9.78606 18.9997 10.3881C18.9648 10.6758 18.9414 10.9335 18.8933 11.1865C18.6893 12.2603 18.3346 13.2792 17.7894 14.2314C17.1501 15.348 16.3294 16.302 15.3048 17.0817C14.1015 17.9975 12.7578 18.5916 11.2725 18.8749C11.0775 18.9121 10.8656 18.8818 10.6875 19C9.93217 19 9.17684 19 8.39466 18.9913C8.32736 18.9698 8.28746 18.9481 8.24636 18.9455C7.91403 18.9245 7.58957 18.851 7.26914 18.7726C6.45961 18.5747 5.68691 18.2772 4.95048 17.8821C4.26771 17.5158 3.64088 17.0708 3.07384 16.5482C2.11722 15.6666 1.3539 14.6404 0.821919 13.4457C0.477142 12.6714 0.229679 11.8712 0.089814 11.0353C0.0705636 10.9202 0.102792 10.7837 0 10.6875C0 9.89506 1.86265e-09 9.10262 0.010121 8.28418C0.101384 8.07514 0.0931727 7.87448 0.132062 7.683C0.536361 5.69237 1.43847 3.97924 2.92886 2.5813C3.40382 2.13581 3.91237 1.74133 4.46022 1.39387C5.21608 0.914486 6.03368 0.574174 6.89037 0.324421C7.39311 0.177858 7.91255 0.107657 8.42383 0ZM1.24334 9.84916C1.09505 9.84947 0.946752 9.84861 0.798489 9.85056C0.717766 9.85162 0.661849 9.86464 0.664524 9.97644C0.673974 10.3715 0.730696 10.7622 0.804498 11.1468C1.07746 12.5695 1.67172 13.8487 2.56871 14.9875C2.64959 15.0901 2.71953 15.1008 2.83317 15.0394C3.11529 14.8868 3.40632 14.7521 3.7052 14.6337C4.06596 14.4907 4.42628 14.3492 4.80391 14.2545C4.90724 14.2286 5.02696 14.2033 4.97684 14.034C4.8162 13.4914 4.70634 12.9378 4.61554 12.3789C4.49309 11.625 4.40449 10.8696 4.40152 10.1052C4.40056 9.85721 4.39143 9.84937 4.13493 9.84933C3.18342 9.84917 2.2319 9.84921 1.24334 9.84916ZM14.1471 13.4843C14.1023 13.6571 14.0598 13.8305 14.0121 14.0024C13.9752 14.1353 14.0142 14.208 14.1542 14.2439C14.3388 14.2912 14.5201 14.3531 14.6999 14.4171C15.2059 14.5971 15.703 14.7987 16.1811 15.0449C16.2571 15.0841 16.3216 15.099 16.3901 15.0123C16.9725 14.2761 17.4377 13.4736 17.7661 12.594C18.0696 11.7814 18.2406 10.9388 18.3162 10.0757C18.3283 9.93666 18.2963 9.84795 18.1315 9.84833C17.0183 9.85088 15.905 9.85018 14.7917 9.85032C14.6663 9.85033 14.6087 9.90113 14.5943 10.037C14.5447 10.5023 14.5489 10.9703 14.494 11.4361C14.4139 12.1153 14.3106 12.7887 14.1471 13.4843ZM14.4105 6.88937C14.52 7.58909 14.5542 8.29555 14.5972 9.00111C14.605 9.12802 14.6767 9.15194 14.7823 9.15187C15.9012 9.15104 17.0201 9.15036 18.1391 9.15282C18.2783 9.15313 18.3279 9.09278 18.3158 8.95994C18.2638 8.39007 18.1823 7.82414 18.0326 7.27195C17.7227 6.12919 17.2228 5.07758 16.4899 4.14193C16.3026 3.90278 16.3607 3.87814 16.0327 4.04527C15.4988 4.31736 14.9434 4.53609 14.371 4.71238C13.9753 4.83426 13.9743 4.83455 14.0778 5.24935C14.2104 5.78057 14.3101 6.31845 14.4105 6.88937ZM4.06645 4.53772C3.63731 4.36616 3.20794 4.19499 2.80496 3.96582C2.71619 3.91534 2.66171 3.92806 2.58938 4.01554C1.96128 4.77521 1.50424 5.63065 1.171 6.55242C0.887214 7.33735 0.70357 8.14556 0.678751 8.98514C0.675292 9.10212 0.698587 9.15408 0.82629 9.1537C1.95752 9.15033 3.08876 9.15058 4.22 9.1519C4.34328 9.15204 4.4015 9.10371 4.40229 8.97679C4.40399 8.70577 4.41491 8.43545 4.43245 8.16439C4.45949 7.74629 4.50202 7.33001 4.56269 6.91712C4.6566 6.2781 4.78525 5.64415 4.96309 5.02244C5.0078 4.86611 4.95073 4.8102 4.81744 4.77061C4.57544 4.69875 4.33551 4.61995 4.06645 4.53772ZM9.07712 13.5917C9.1523 13.5547 9.15167 13.4854 9.15165 13.4164C9.15136 12.2918 9.15001 11.1671 9.15199 10.0425C9.15224 9.89818 9.08969 9.84756 8.94935 9.84789C7.73819 9.85072 6.52702 9.85174 5.31587 9.84729C5.14224 9.84665 5.08543 9.91696 5.09653 10.0812C5.12761 10.541 5.15121 11.0006 5.20257 11.4596C5.29034 12.2439 5.45224 13.0112 5.6419 13.7754C5.6914 13.9749 5.7769 14.0143 5.95886 13.9704C6.97369 13.7257 8.01142 13.6676 9.07712 13.5917ZM7.06933 9.15165C7.6933 9.15147 8.31728 9.1495 8.94123 9.15256C9.07279 9.15321 9.15319 9.1236 9.1528 8.96952C9.14999 7.84514 9.15001 6.72075 9.15214 5.59638C9.15243 5.44133 9.07892 5.39453 8.93408 5.39471C8.6758 5.39501 8.41814 5.38421 8.15945 5.36634C7.39736 5.31367 6.64552 5.19907 5.89921 5.04564C5.73802 5.0125 5.68646 5.06978 5.65494 5.20589C5.55928 5.61893 5.44784 6.02783 5.36975 6.44552C5.21692 7.26304 5.13374 8.08693 5.0957 8.91684C5.0876 9.09352 5.14535 9.15814 5.32716 9.15521C5.89538 9.14607 6.46385 9.15173 7.06933 9.15165ZM11.5596 9.84968C11.0653 9.84968 10.571 9.85538 10.0769 9.84665C9.89875 9.8435 9.84216 9.90428 9.84419 10.0828C9.85261 10.8241 9.84759 11.5655 9.84764 12.3069C9.84767 12.6776 9.85011 13.0483 9.84695 13.4189C9.84594 13.5383 9.88243 13.5985 10.014 13.6075C10.2103 13.6208 10.406 13.6374 10.6029 13.646C10.9526 13.6614 11.3036 13.683 11.6498 13.7318C12.1298 13.7993 12.6067 13.89 13.0831 13.9802C13.2233 14.0067 13.2781 13.9697 13.3151 13.8296C13.6417 12.5943 13.8625 11.345 13.8713 10.0621C13.8726 9.87897 13.8169 9.84491 13.6539 9.84654C12.9682 9.85342 12.2824 9.8496 11.5596 9.84968ZM12.158 5.2113C12.1099 5.22217 12.0624 5.23791 12.0138 5.24319C11.3654 5.31354 10.7192 5.41586 10.064 5.39492C9.9099 5.38999 9.84366 5.43602 9.8446 5.60484C9.85085 6.71742 9.8497 7.83005 9.84613 8.94265C9.84566 9.09146 9.89429 9.15393 10.0494 9.15346C11.2671 9.14978 12.4848 9.15026 13.7024 9.15295C13.8281 9.15322 13.869 9.11793 13.8703 8.98239C13.8752 8.46357 13.8206 7.951 13.7591 7.43699C13.6677 6.672 13.5231 5.91931 13.3091 5.17932C13.2755 5.06287 13.224 5.01951 13.0958 5.04621C12.7956 5.10879 12.4921 5.15619 12.158 5.2113ZM8.95875 0.738879C8.27345 0.940682 7.73176 1.34471 7.27702 1.89044C6.71237 2.56807 6.333 3.34502 6.00278 4.15206C5.94896 4.28359 5.97225 4.35033 6.13414 4.3732C6.52315 4.42816 6.90762 4.51579 7.29686 4.56853C7.85171 4.64372 8.40846 4.70729 8.97054 4.69902C9.09436 4.6972 9.15421 4.6472 9.15197 4.52174C9.14977 4.39813 9.15204 4.27443 9.15203 4.15077C9.15198 3.0811 9.15193 2.01143 9.15165 0.941765C9.15161 0.827379 9.16214 0.703411 8.95875 0.738879ZM7.25352 17.1091C7.42753 17.2835 7.59468 17.4654 7.77705 17.6306C8.11049 17.9325 8.49434 18.1515 8.92891 18.2737C9.1284 18.3299 9.15143 18.3084 9.15165 18.0955C9.15245 17.3227 9.15209 16.5498 9.15196 15.7769C9.15189 15.3503 9.15021 14.9237 9.15189 14.4971C9.15238 14.3736 9.12305 14.2872 8.97391 14.3074C8.54687 14.3653 8.11513 14.3558 7.68645 14.4065C7.14817 14.4702 6.61494 14.5535 6.08552 14.6677C5.97945 14.6906 5.94775 14.7281 5.99177 14.831C6.08135 15.0406 6.1568 15.2565 6.25306 15.4628C6.5222 16.0397 6.83595 16.5906 7.25352 17.1091ZM9.84794 4.17436C9.84799 4.27948 9.85391 4.38501 9.84668 4.48963C9.83635 4.63912 9.89306 4.7071 10.0488 4.69969C10.2763 4.68886 10.5034 4.68596 10.7314 4.66929C11.4385 4.6176 12.1354 4.50998 12.8307 4.3766C13.0308 4.33822 13.0222 4.26454 12.964 4.11869C12.6724 3.3882 12.3276 2.68573 11.8396 2.06479C11.3793 1.47929 10.8436 0.98632 10.105 0.769916C9.87599 0.702814 9.84814 0.723721 9.84803 0.965192C9.84756 2.02259 9.8479 3.07999 9.84794 4.17436ZM9.84793 17.7565C9.84794 17.8677 9.84751 17.9789 9.84807 18.0901C9.84913 18.3006 9.87368 18.3194 10.0702 18.2645C10.7116 18.0855 11.2231 17.7027 11.6438 17.2058C12.2223 16.5226 12.6422 15.7437 12.9592 14.9061C13.0242 14.7343 12.9654 14.6717 12.8248 14.6441C12.1979 14.5211 11.5668 14.4295 10.9299 14.3704C10.6525 14.3447 10.3756 14.3558 10.0998 14.3334C9.85074 14.3131 9.84815 14.3065 9.84807 14.5501C9.8477 15.6066 9.84792 16.663 9.84793 17.7565ZM15.4253 15.4719C14.9505 15.2498 14.457 15.0787 13.9581 14.9195C13.7912 14.8662 13.7264 14.9164 13.6757 15.0687C13.404 15.8836 12.9857 16.621 12.4651 17.3008C12.2905 17.5287 12.098 17.7428 11.9129 17.9643C11.9572 17.9978 11.993 17.981 12.0267 17.9706C12.8147 17.728 13.5571 17.3871 14.2548 16.9465C14.7098 16.6592 15.119 16.3137 15.5266 15.9658C15.8544 15.6861 15.8528 15.6843 15.4253 15.4719ZM3.79572 15.3616C3.59464 15.4509 3.38655 15.5267 3.1821 15.67C4.25823 16.8117 5.55471 17.5471 7.03631 17.9813C6.94958 17.843 6.85474 17.7163 6.75077 17.5977C6.08754 16.841 5.62076 15.9723 5.28723 15.0286C5.24242 14.9018 5.18694 14.875 5.05666 14.9129C4.63634 15.0352 4.22599 15.1834 3.79572 15.3616ZM5.09584 1.85336C4.39494 2.26411 3.7498 2.74516 3.16863 3.34474C3.21064 3.37313 3.22513 3.38503 3.24137 3.3936C3.8325 3.70528 4.45339 3.94029 5.09628 4.12074C5.21689 4.1546 5.25616 4.08833 5.28274 4.0009C5.33488 3.82937 5.40708 3.66632 5.47454 3.50076C5.77947 2.75241 6.19808 2.07601 6.72108 1.46004C6.8221 1.34106 6.95688 1.23877 7.00658 1.06907C6.33516 1.23615 5.70837 1.4915 5.09584 1.85336ZM12.9998 2.49616C13.2692 2.93312 13.4793 3.39829 13.6525 3.8803C13.7547 4.16475 13.7503 4.16479 14.0453 4.0725C14.5872 3.90302 15.1173 3.70489 15.6256 3.44932C15.8005 3.36134 15.8098 3.35232 15.6749 3.21403C15.2035 2.73047 14.6692 2.32535 14.0934 1.9768C13.4129 1.56487 12.696 1.23218 11.8982 1.02329C12.2984 1.50062 12.6798 1.95896 12.9998 2.49616Z" fill="#8257E6"/>
</g>
</g>
<defs>
<clipPath id="clip0_9_2">
<rect width="19" height="19" fill="white"/>
</clipPath>
</defs>
</svg>
