<svg width="48" height="48" viewBox="0 0 48 48" fill="none" xmlns="http://www.w3.org/2000/svg">
<g clip-path="url(#clip0_7_5)">
<path d="M48 0H0L4.23529 42.9474L24 48L43.7647 42.9474L48 0Z" fill="black"/>
<path d="M22.481 3.64563V46.1773L37.3826 41.9108L40.7088 3.64563H22.481Z" fill="black"/>
<path d="M22.481 26.495V21.1064H33.8403L32.9157 36.5987L22.481 40.1013V34.4432L27.8965 32.5572L28.2927 26.495H22.481ZM34.2366 15.7177L34.6329 10.3291H22.481V15.7177H34.2366Z" fill="white"/>
<path d="M22.481 34.4432V40.1013L11.9316 36.5986L11.3974 29.1893H16.7389L17.006 32.5572L22.481 34.4432ZM15.9377 15.7177H22.481V10.3291H10.3291L11.2639 26.495H22.481V21.1064H16.3383L15.9377 15.7177Z" fill="white"/>
</g>
<defs>
<clipPath id="clip0_7_5">
<rect width="48" height="48" fill="white"/>
</clipPath>
</defs>
</svg>
