<svg width="89" height="99" viewBox="0 0 89 99" fill="none" xmlns="http://www.w3.org/2000/svg">
<path d="M41.7926 1.07936L41.7961 1.079C42.0043 1.0562 42.8286 1.05981 43.7283 1.08374C44.6202 1.10746 45.4914 1.14839 45.7791 1.18712L45.7798 1.18721C52.4934 2.08225 58.4124 6.01442 62.2909 12.1948C66.6013 19.0776 67.726 27.832 65.3105 35.8666C62.595 44.8994 55.5472 51.6767 47.2805 53.289L47.2784 53.2894C45.7879 53.5868 45.1471 53.64 43.2373 53.64C41.3274 53.64 40.6866 53.5868 39.1962 53.2894L39.1936 53.2889C35.0602 52.4866 30.9548 50.2584 27.864 47.1467C23.617 42.8651 20.9518 37.3602 20.1515 31.1852L41.7926 1.07936ZM41.7926 1.07936C41.753 1.08341 41.6841 1.09105 41.5962 1.1008C41.3808 1.1247 41.0509 1.1613 40.756 1.18902C37.0848 1.59397 33.3799 3.12171 30.1847 5.56068L30.1846 5.56076M41.7926 1.07936L30.1846 5.56076M30.1846 5.56076C22.7644 11.2218 18.8575 21.149 20.1515 31.1849L30.1846 5.56076Z" fill="url(#paint0_linear_6_208)" fill-opacity="0.25" stroke="white"/>
<path d="M60.0158 52.5525L60.0136 52.5544C56.625 55.4514 52.3244 57.5503 48.0497 58.3818C46.2926 58.7262 45.5567 58.7906 43.2372 58.7906C40.9973 58.7906 40.6547 58.7657 38.8961 58.4624C34.7305 57.758 30.5843 55.8564 27.0664 53.0674L27.0647 53.066L26.4492 52.5737L25.9419 52.6652C25.9409 52.6654 25.9398 52.6656 25.9388 52.6658C25.5553 52.7405 24.7204 52.954 24.0682 53.1336C18.5535 54.7035 13.6195 57.8746 9.56082 62.4593L9.56072 62.4594C4.5854 68.076 1.53472 75.2358 0.661349 83.3571L0.661312 83.3574C0.462699 85.1925 0.443679 89.0912 0.625458 90.5238L0.625601 90.5249C0.988936 93.4422 1.58777 94.9704 2.72055 96.1812L2.72123 96.1819C3.77521 97.313 5.34613 97.852 7.70295 97.7462C9.51869 97.6626 11.3109 97.3302 16.1619 96.1314L16.1621 96.1313C21.8546 94.7272 24.5089 94.2122 27.9847 93.8407L27.9859 93.8406C28.1927 93.819 28.8484 93.8028 29.7953 93.7891C30.7583 93.7751 32.0564 93.7635 33.5769 93.7542C36.6184 93.7356 40.5541 93.7263 44.4893 93.7263C48.4246 93.7263 52.3603 93.7356 55.4017 93.7542C56.9223 93.7635 58.2203 93.7751 59.1833 93.7891C60.1302 93.8028 60.786 93.819 60.9927 93.8406L60.994 93.8407C64.4697 94.2122 67.1241 94.7272 72.8166 96.1313L72.8168 96.1314C77.6677 97.3301 79.4599 97.6626 81.2756 97.7462C82.981 97.8217 84.1619 97.5861 85.2196 97.0015L85.2206 97.0009C86.2775 96.4198 87.2046 95.2094 87.6981 93.6613L87.6988 93.6591C88.1933 92.1321 88.4266 90.4852 88.4885 88.0367C88.722 78.5248 85.3891 69.1817 79.3488 62.3816C74.5025 56.9257 68.3373 53.4714 61.5797 52.4099L61.579 52.4098L61.4885 52.3954C61.1724 52.3452 60.9443 52.3091 60.7656 52.2875C60.5675 52.2637 60.4705 52.2635 60.4138 52.2708L60.4117 52.2711C60.3493 52.2792 60.3288 52.2818 60.0158 52.5525Z" fill="url(#paint1_linear_6_208)" fill-opacity="0.25" stroke="white"/>
<defs>
<linearGradient id="paint0_linear_6_208" x1="43.2339" y1="54.14" x2="43.2339" y2="0.563736" gradientUnits="userSpaceOnUse">
<stop stop-color="#1F787E"/>
<stop offset="1" stop-color="#1F787E" stop-opacity="0"/>
</linearGradient>
<linearGradient id="paint1_linear_6_208" x1="44.5" y1="98.2599" x2="44.5" y2="51.7666" gradientUnits="userSpaceOnUse">
<stop stop-color="#1F787E"/>
<stop offset="1" stop-color="#1F787E" stop-opacity="0"/>
</linearGradient>
</defs>
</svg>
