<svg width="79" height="79" viewBox="0 0 79 79" fill="none" xmlns="http://www.w3.org/2000/svg">
<g clip-path="url(#clip0_103_11)">
<path d="M28.6918 61.0769C28.6918 61.0769 25.6552 62.9235 30.8026 63.4518C36.9991 64.2418 40.2999 64.111 47.158 62.7927C48.5364 63.6368 49.9942 64.3437 51.5105 64.9034C36.0808 71.4999 16.5554 64.5084 28.6918 61.0769ZM26.7168 52.5029C26.7168 52.5029 23.4185 55.0087 28.5634 55.5395C35.2908 56.1986 40.5665 56.3295 49.6712 54.4853C50.5567 55.3833 51.6408 56.0607 52.8362 56.4628C34.2366 62.0027 13.3954 56.9886 26.7168 52.5029ZM63.1235 67.5376C63.1235 67.5376 65.3651 69.3842 60.6177 70.8359C51.7796 73.4774 23.5519 74.2674 15.637 70.8359C12.8671 69.6509 18.1428 67.9351 19.8339 67.6709C21.5497 67.2759 22.4755 67.2759 22.4755 67.2759C19.4389 65.1651 2.29345 71.6283 13.7707 73.4725C45.2966 78.6173 71.2827 71.2309 63.1037 67.5376H63.1235ZM30.1187 43.5315C30.1187 43.5315 15.7407 46.963 24.9739 48.148C28.9313 48.6763 36.7128 48.543 43.9684 48.0172C49.9033 47.4889 55.8431 46.4372 55.8431 46.4372C55.8431 46.4372 53.7323 47.3605 52.2807 48.2838C37.641 52.1104 9.5417 50.3946 17.5898 46.4372C24.448 43.1389 30.1212 43.5364 30.1212 43.5364L30.1187 43.5315ZM55.8431 57.9095C70.6161 50.2564 63.7579 42.8748 59.008 43.7956C57.823 44.0598 57.2923 44.3239 57.2923 44.3239C57.2923 44.3239 57.6873 43.5339 58.6106 43.2698C67.977 39.9715 75.3635 53.1621 55.574 58.3045C55.574 58.3045 55.7049 58.1736 55.8382 57.9095H55.8431ZM31.5753 78.7507C45.82 79.674 67.587 78.2223 68.1128 71.4925C68.1128 71.4925 67.0586 74.1341 56.3739 76.1091C44.2375 78.3507 29.2004 78.0841 20.3622 76.6374C20.3622 76.6374 22.2089 78.2199 31.5753 78.7507Z" fill="black"/>
<path d="M46.8964 0.00244141C46.8964 0.00244141 55.0754 8.31225 39.1149 20.8436C26.3194 31.0001 36.2141 36.8041 39.1149 43.4006C31.5951 36.6733 26.1885 30.7359 29.8818 25.1985C35.2883 17.0171 50.1946 13.0843 46.8964 0.00244141ZM42.6995 37.8607C46.5261 42.2131 41.6454 46.1705 41.6454 46.1705C41.6454 46.1705 51.4068 41.159 46.9211 34.9575C42.8328 29.0226 39.6629 26.1193 56.8134 16.2271C56.8134 16.2271 29.7731 22.9544 42.6995 37.8607Z" fill="black"/>
</g>
<defs>
<clipPath id="clip0_103_11">
<rect width="79" height="79" fill="white"/>
</clipPath>
</defs>
</svg>
