<svg width="48" height="48" viewBox="0 0 48 48" fill="none" xmlns="http://www.w3.org/2000/svg">
<g clip-path="url(#clip0_7_2)">
<path d="M0 48V0H48V48H0Z" fill="black"/>
<path d="M31.4004 35.8156C32.3163 37.3095 33.3116 38.741 35.4199 38.741C37.1908 38.741 38.1199 37.8571 38.1199 36.6344C38.1199 35.171 37.159 34.6513 35.2108 33.7994L34.1427 33.3421C31.0603 32.029 29.0102 30.3835 29.0102 26.9079C29.0102 23.7047 31.452 21.2671 35.2677 21.2671C37.9849 21.2671 39.9371 22.2121 41.3453 24.6869L38.018 26.8228C37.2861 25.5097 36.4946 24.9926 35.2677 24.9926C34.0157 24.9926 33.2229 25.7861 33.2229 26.8228C33.2229 28.1041 34.017 28.6225 35.8501 29.4159L36.9181 29.8731C40.5512 31.4269 42.6 33.0138 42.6 36.5812C42.6 40.425 39.5771 42.5316 35.5192 42.5316C31.55 42.5316 29.2961 40.5313 28.0414 38.0552L31.4004 35.8156ZM16.0662 35.9246C16.7359 37.1288 17.7537 38.0552 19.2175 38.0552C20.6178 38.0552 21.4238 37.4996 21.4238 35.3398V21.2658H25.8351V36.0203C25.8351 40.4954 23.2503 42.5316 19.4756 42.5316C16.0649 42.5316 13.6032 40.211 12.6 38.0552L16.0662 35.9246Z" fill="white"/>
</g>
<defs>
<clipPath id="clip0_7_2">
<rect width="48" height="48" fill="white"/>
</clipPath>
</defs>
</svg>
