<svg width="79" height="79" viewBox="0 0 79 79" fill="none" xmlns="http://www.w3.org/2000/svg">
<path d="M39.6024 1.3523C30.1576 1.17208 21.1485 3.66429 13.4399 10.791C-2.69157 25.7108 -3.17174 51.2562 12.4092 66.7267C15.2137 69.5114 18.5514 72.0875 22.2163 73.6564C23.1735 70.4378 22.9871 66.552 22.6841 62.7322C22.6113 62.6569 22.536 62.5822 22.4804 62.4989C21.4565 60.9726 22.2163 56.9881 22.2163 55.1754C28.6572 56.3172 33.9033 59.8598 40.7985 57.8021C47.5463 55.7882 50.3588 46.057 44.4097 41.4504C40.8171 38.6668 35.487 39.0464 31.25 39.5568C28.7054 39.8642 25.5281 40.8035 23.7716 38.0972C22.7347 36.5042 23.8049 32.5943 23.979 30.7921C24.0222 30.3379 24.0697 29.875 24.1147 29.4189C24.5659 23.8222 25.3145 18.1651 25.3145 12.5654H52.6708V3.07055C48.2789 2.06762 43.8956 1.43562 39.6024 1.3523Z" fill="black"/>
<path d="M52.4498 3.05322V19.7667H32.5437L31.5093 32.6208C35.9265 32.2746 40.0215 31.4951 44.4356 32.5326C47.4617 33.2454 50.302 34.6742 52.4035 36.993C58.2687 43.4562 57.1145 55.5888 50.381 61.0398C48.4862 62.5742 46.3211 63.582 44.0351 64.2301C41.9243 64.9047 39.8036 65.1904 37.6756 65.2102C36.9134 65.2515 36.1503 65.2729 35.387 65.2744C32.0727 65.2744 28.7578 64.8436 25.5633 63.9499C24.7511 63.7221 23.4945 63.4055 22.7045 62.8143C22.5372 62.7785 22.3693 62.7396 22.2021 62.7032L21.9447 73.5021C42.46 84.3806 68.5948 72.7411 75.9535 51.3913C82.1742 33.3491 72.5405 7.7889 52.4498 3.05322Z" fill="black"/>
</svg>
