<svg width="32" height="26" viewBox="0 0 32 26" fill="none" xmlns="http://www.w3.org/2000/svg">
<g clip-path="url(#clip0_6_258)">
<path d="M6.71563 2.89018C6.71518 3.65632 6.36099 4.39093 5.73096 4.93241C5.10093 5.47387 4.24669 5.77785 3.35614 5.77748C2.46559 5.77709 1.61169 5.47237 0.982293 4.93036C0.352906 4.38834 -0.000435066 3.65343 4.02035e-07 2.88729C0.000449478 2.12115 0.354648 1.38654 0.984674 0.845069C1.6147 0.303606 2.46895 -0.000374288 3.3595 3.45872e-07C4.25004 0.000386687 5.10394 0.305104 5.73334 0.847118C6.36274 1.38913 6.71608 2.12405 6.71563 2.89018ZM6.81636 7.91654H0.100743V26H6.81636V7.91654ZM17.4271 7.91654H10.745V26H17.3598V16.5105C17.3598 11.2242 25.3682 10.7331 25.3682 16.5105V26H32V14.5463C32 5.63448 20.1468 5.96669 17.3598 10.3431L17.4271 7.91654Z" fill="#00C6CA"/>
</g>
<defs>
<clipPath id="clip0_6_258">
<rect width="32" height="26" fill="white"/>
</clipPath>
</defs>
</svg>
