<svg width="79" height="78" viewBox="0 0 79 78" fill="none" xmlns="http://www.w3.org/2000/svg">
<path fill-rule="evenodd" clip-rule="evenodd" d="M72.7804 62.0209C68.483 61.8982 65.1492 62.3496 62.3549 63.5541C61.5504 63.8853 60.2592 63.8853 60.1532 64.9229C60.5832 65.3583 60.635 66.071 61.012 66.6744C61.6564 67.7697 62.7861 69.2453 63.8063 70.0106L67.2449 72.5288C69.3406 73.8412 71.7049 74.6078 73.7464 75.9214C74.9291 76.688 76.1106 77.6729 77.2934 78.4947C77.8956 78.9326 78.2605 79.6452 79.0133 79.9175V79.7519C78.6375 79.2613 78.5291 78.5499 78.1545 78.0004L76.5406 76.4145C74.9833 74.2803 73.0478 72.4184 70.9521 70.8876C69.2322 69.6832 65.472 68.042 64.7734 66.0182L64.6674 65.8956C65.8478 65.7729 67.2449 65.3473 68.3746 65.0186C70.203 64.528 71.8675 64.6359 73.7464 64.1441L76.3274 63.3775V62.8868C75.3603 61.9019 74.6617 60.5883 73.6416 59.6586C70.9015 57.2508 67.8905 54.8971 64.7734 52.9273C63.1077 51.8332 60.9578 51.1205 59.1849 50.1921C58.5381 49.8633 57.465 49.699 57.0892 49.1519C56.1196 47.9499 55.5837 46.3615 54.8851 44.9375L50.4793 35.4158C49.5122 33.2816 48.9196 31.1474 47.7393 29.1776C42.2037 19.8742 36.184 14.2382 26.9413 8.71015C24.954 7.56088 22.5897 7.06658 20.0761 6.46557L16.0461 6.24479C15.1849 5.8621 14.3262 4.82199 13.5734 4.32892C10.5106 2.35908 2.61076 -1.90931 0.352466 3.71564C-1.09886 7.27264 2.50235 10.7744 3.72484 12.5811C4.6402 13.8396 5.82054 15.2624 6.46731 16.6852C6.82864 17.6149 6.94909 18.601 7.32607 19.586C8.18483 21.9937 8.99179 24.6761 10.1203 26.9207C10.7225 28.07 11.3549 29.2757 12.1076 30.3146C12.5376 30.9279 13.2904 31.1904 13.4506 32.1753C12.6978 33.2706 12.646 34.9105 12.216 36.2805C10.2805 42.4648 11.0333 50.1258 13.7733 54.6788C14.6345 56.0464 16.664 59.0576 19.4173 57.907C21.8358 56.9221 21.2962 53.803 21.9947 51.0666C22.1573 50.4104 22.0489 49.9725 22.3705 49.5334V49.6561L24.5746 54.198C26.2403 56.8792 29.143 59.6708 31.5603 61.5327C32.849 62.5177 33.8703 64.2152 35.4819 64.8162V64.6506H35.3759C35.0531 64.16 34.5689 63.9392 34.1389 63.5565C33.1718 62.5716 32.0974 61.3671 31.3447 60.2731C29.0888 57.2091 27.1015 53.8153 25.3274 50.3135C24.4662 48.6172 23.7134 46.7565 23.0173 45.0602C22.6921 44.4027 22.6921 43.4166 22.1561 43.0903C21.3492 44.2924 20.1688 45.3349 19.575 46.8117C18.5537 49.1642 18.4477 52.065 18.0719 55.0749C17.8551 55.1301 17.9515 55.0749 17.8551 55.1976C16.1376 54.761 15.5451 52.953 14.9007 51.4223C13.2892 47.5366 13.0194 41.2983 14.4165 36.8104C14.7923 35.6611 16.4062 32.0489 15.7618 30.9549C15.4367 29.9147 14.3647 29.3137 13.7721 28.4919C13.0736 27.4518 12.3232 26.1394 11.839 24.9901C10.5503 21.9238 9.90594 18.5324 8.50761 15.4672C7.86083 14.0444 6.7335 12.5664 5.81934 11.254C4.79799 9.77602 3.67185 8.73591 2.86489 6.98562C2.5963 6.37235 2.22052 5.39847 2.6505 4.74104C2.75649 4.30316 2.97329 4.12776 3.40086 4.02964C4.09942 3.41636 6.08912 4.194 6.78769 4.52026C8.77499 5.34205 10.4407 6.10742 12.1064 7.25547C12.8592 7.80251 13.6662 8.84262 14.6333 9.11737H15.763C17.483 9.50005 19.4161 9.24002 21.0264 9.73064C23.8748 10.6628 26.4535 12.0292 28.766 13.5084C35.8046 18.0503 41.61 24.5081 45.5316 32.2256C46.1759 33.484 46.4445 34.6333 47.0371 35.9469C48.1668 38.6294 49.564 41.3646 50.6901 43.9931C51.8199 46.5652 52.8942 49.1936 54.5057 51.3278C55.3127 52.4771 58.5357 53.0781 59.9858 53.6804C61.0614 54.171 62.7259 54.6125 63.6955 55.2135C65.5214 56.3628 67.3485 57.6765 69.0672 58.9349C69.9259 59.5899 72.6142 60.9587 72.7744 62.0503L72.7804 62.0209ZM17.9792 14.4651C17.2367 14.4584 16.4966 14.5504 15.7775 14.7386V14.8613H15.8835C16.3135 15.7371 17.0662 16.3393 17.6034 17.1059L18.8404 19.7332L18.9463 19.6105C19.6991 19.0635 20.0761 18.1877 20.0761 16.8753C19.7533 16.4926 19.7003 16.1087 19.4317 15.726C19.1089 15.179 18.4104 14.9042 17.9792 14.4676V14.4651Z" fill="black"/>
</svg>
