<svg width="79" height="79" viewBox="0 0 79 79" fill="none" xmlns="http://www.w3.org/2000/svg">
<path d="M24.168 78.4581C22.4784 78.4581 20.9398 78.0279 19.5939 77.1808C17.3424 75.762 15.7861 73.3172 14.9665 69.9166C14.0135 65.9586 14.1271 60.7014 15.2943 54.6881C5.88145 51.09 0.493652 45.5694 0.493652 39.5002C0.493652 33.4298 5.88047 27.9103 15.2933 24.3133C14.1261 18.299 14.0115 13.0417 14.9645 9.08372C15.7841 5.68205 17.3404 3.23724 19.5909 1.81951C20.9359 0.972383 22.4754 0.542236 24.165 0.542236C28.4982 0.542236 33.9324 3.5379 39.5019 8.98936C45.0714 3.54339 50.5036 0.549917 54.8318 0.549917C56.5214 0.549917 58.06 0.980064 59.4059 1.82719C61.6545 3.24382 63.2118 5.68425 64.0314 9.08153C64.9853 13.0384 64.8708 18.2968 63.7025 24.3122C73.1174 27.9092 78.5062 33.4298 78.5062 39.5002C78.5062 45.5705 73.1174 51.0911 63.7025 54.6892C64.8698 60.7035 64.9843 65.9608 64.0304 69.9177C63.2108 73.3161 61.6555 75.7565 59.4089 77.1731C58.0619 78.0203 56.5224 78.4504 54.8338 78.4504C50.5026 78.4504 45.0684 75.4569 39.5009 70.0132C33.9314 75.4635 28.4982 78.4581 24.168 78.4581ZM19.0952 55.9664C18.1166 61.1425 18.007 65.5646 18.7831 68.782C19.3184 71.0051 20.2456 72.5469 21.5422 73.3633C22.2858 73.8318 23.1696 74.0699 24.168 74.0699C27.5196 74.0699 31.9317 71.5659 36.6312 67.0065C34.276 64.3708 31.9771 61.3872 29.7898 58.1282C26.0067 57.6717 22.4122 56.9452 19.0952 55.9664ZM42.3696 67.0043C47.0681 71.5593 51.4812 74.0611 54.8328 74.0622C55.8312 74.0622 56.715 73.8241 57.4606 73.3556C58.7532 72.5414 59.6785 71.0029 60.2127 68.7831C60.9889 65.5635 60.8803 61.1425 59.9017 55.9675C56.5817 56.9463 52.9862 57.6728 49.2041 58.1292C47.0177 61.3883 44.7218 64.3708 42.3696 67.0043ZM35.1213 58.5857C36.5552 60.5346 38.0226 62.3528 39.4999 64.0065C40.9733 62.3539 42.4417 60.5357 43.8745 58.5857C42.4022 58.6636 40.9357 58.7031 39.4999 58.7031C38.0631 58.7031 36.5957 58.6636 35.1213 58.5857ZM31.9445 53.9617C34.4084 54.1954 36.9492 54.3139 39.4999 54.3139C42.0526 54.3139 44.5905 54.1954 47.0503 53.9627C48.5178 51.6759 49.917 49.2794 51.2117 46.8357C52.4638 44.471 53.6419 42.0031 54.7143 39.4991C53.6449 37.0016 52.4678 34.5348 51.2126 32.1646C49.921 29.7264 48.5217 27.3299 47.0503 25.0376C44.5924 24.8049 42.0546 24.6864 39.4999 24.6864C36.9443 24.6864 34.4054 24.8049 31.9485 25.0387C30.4771 27.3277 29.0759 29.7242 27.7822 32.1657C26.5281 34.5348 25.351 37.0016 24.2806 39.5023C25.349 41.9976 26.5261 44.4644 27.7812 46.8368C29.0689 49.2673 30.4682 51.6628 31.9445 53.9617ZM56.7723 44.7442C56.0751 46.2212 55.3522 47.6697 54.6146 49.0611C53.871 50.4678 53.08 51.879 52.2584 53.2703C54.6027 52.8687 56.8453 52.3541 58.9448 51.7341C58.3621 49.4857 57.6324 47.1407 56.7723 44.7442ZM20.0501 51.733C22.1505 52.3519 24.3921 52.8676 26.7335 53.2692C25.907 51.8691 25.116 50.4568 24.3773 49.0611C23.6416 47.6708 22.9178 46.2245 22.2216 44.7475C21.3655 47.1331 20.6367 49.4758 20.0501 51.733ZM59.0682 39.5002C60.5771 43.2211 61.8065 46.8993 62.7299 50.4481C70.0393 47.5907 74.5562 43.422 74.5562 39.5002C74.5562 35.5784 70.0393 31.4097 62.7299 28.5523C61.8085 32.101 60.5781 35.7792 59.0682 39.5002ZM16.266 28.5545C8.95949 31.4108 4.44365 35.5795 4.44365 39.5002C4.44365 43.422 8.95949 47.5907 16.268 50.447C17.1903 46.8971 18.4197 43.219 19.9267 39.5023C18.4188 35.7847 17.1893 32.1065 16.266 28.5545ZM20.0491 27.2673C20.6357 29.5212 21.3645 31.8651 22.2216 34.255C22.9168 32.7824 23.6397 31.335 24.3783 29.9404C25.1209 28.5369 25.9119 27.1258 26.7365 25.7311C24.3921 26.1316 22.1505 26.6473 20.0491 27.2673ZM52.2604 25.73C53.0869 27.1312 53.8779 28.5424 54.6166 29.9404C55.3532 31.3307 56.0771 32.778 56.7742 34.255C57.6324 31.8661 58.3612 29.5223 58.9477 27.2662C56.8444 26.6462 54.6027 26.1305 52.2604 25.73ZM24.165 4.93149C23.1667 4.93149 22.2838 5.16851 21.5412 5.63816C20.2456 6.45456 19.3174 7.99629 18.7812 10.2194C18.006 13.4401 18.1146 17.8611 19.0942 23.035C22.4122 22.0562 26.0087 21.3286 29.7928 20.8722C31.9821 17.612 34.281 14.6306 36.6332 11.9971C31.9327 7.43556 27.5176 4.93149 24.165 4.93149ZM49.2051 20.8711C52.9872 21.3276 56.5827 22.054 59.9026 23.0328C60.8822 17.8578 60.9919 13.4357 60.2147 10.2162C59.6795 7.99738 58.7532 6.45895 57.4596 5.64474C56.715 5.17619 55.8312 4.93807 54.8318 4.93807C51.4812 4.93807 47.0701 7.44105 42.3706 11.9971C44.7208 14.6295 47.0177 17.612 49.2051 20.8711ZM39.4999 20.2972C40.9357 20.2972 42.4022 20.3367 43.8755 20.4146C42.4436 18.468 40.9762 16.6508 39.5019 14.9961C38.0236 16.653 36.5572 18.4701 35.1253 20.4146C36.5976 20.3367 38.0641 20.2972 39.4999 20.2972Z" fill="black"/>
<path d="M24.1651 1.09073C28.6029 1.09073 34.0362 4.28391 39.503 9.7233C44.9688 4.2883 50.399 1.09841 54.8329 1.09841C56.4356 1.09841 57.8932 1.50442 59.1641 2.30436C61.2931 3.64528 62.7704 5.97268 63.5545 9.22402C64.6181 13.5222 64.3949 18.8145 63.1259 24.6742C72.2327 28.055 78.0125 33.3891 78.0125 39.5C78.0125 45.6109 72.2327 50.945 63.125 54.3269C64.4492 60.6617 64.6714 66.0967 63.5535 69.776C62.7695 73.0262 61.2931 75.3547 59.1661 76.6956C57.8932 77.4967 56.7368 77.906 55.1351 77.906C55.1341 77.906 54.7243 77.906 54.7233 77.906C50.2875 77.906 44.9648 74.7128 39.5 69.28C34.0342 74.7183 28.6029 77.9093 24.1671 77.9093C22.5644 77.9093 21.1068 77.5033 19.8359 76.7033C17.7049 75.3591 16.2266 73.0284 15.4435 69.7749C14.2684 65.6962 14.5054 60.3347 15.8721 54.3258C6.76635 50.9439 0.9875 45.6109 0.9875 39.5C0.9875 33.3902 6.76635 28.0561 15.8711 24.6742C15.1927 21.3175 14.7592 18.2011 14.7444 15.3591C14.7325 13.114 15.008 11.0258 15.4425 9.22512C16.2266 5.97048 17.7039 3.63979 19.8349 2.29668C21.1049 1.49564 22.5624 1.09073 24.1651 1.09073ZM18.721 23.714C22.1546 22.6661 25.9673 21.8738 30.0605 21.391C32.4127 17.8687 34.8746 14.7018 37.3542 11.9717C32.5431 7.20277 27.8584 4.38157 24.1651 4.38157C23.0799 4.38157 22.116 4.64273 21.2974 5.15957C19.8823 6.05168 18.8761 7.70534 18.3043 10.0766C17.457 13.5902 17.6496 18.3394 18.721 23.714ZM60.276 23.7129C61.3475 18.3383 61.54 13.588 60.6927 10.0744C60.122 7.70753 59.1157 6.05717 57.7036 5.16725C56.8839 4.65042 55.9172 4.38926 54.8329 4.38926C51.1426 4.38926 46.4609 7.20716 41.6508 11.9717C44.1294 14.7018 46.5883 17.8687 48.9385 21.3899C53.0297 21.8728 56.8425 22.665 60.276 23.7129ZM34.046 21.0278C35.8255 20.9104 37.6099 20.8084 39.4654 20.8084C41.321 20.8084 43.1735 20.9115 44.953 21.0278C43.1676 18.527 41.3348 16.2424 39.501 14.2201C37.6672 16.2424 35.8334 18.527 34.046 21.0278ZM39.5 54.8624C42.2265 54.8624 44.8364 54.7296 47.319 54.4871C48.819 52.1641 50.2697 49.6973 51.6364 47.1143C52.9725 44.5915 54.1812 42.0381 55.2605 39.5C54.1812 36.9619 52.9725 34.4096 51.6374 31.8879C50.2697 29.3038 48.82 26.8381 47.319 24.5151C44.8374 24.2704 42.2275 24.1376 39.5 24.1376C36.7725 24.1376 34.1616 24.2704 31.679 24.514C30.177 26.837 28.7254 29.3038 27.3577 31.8868C26.0226 34.4096 24.8139 36.963 23.7346 39.5011C24.8139 42.0392 26.0216 44.5915 27.3567 47.1132C28.7244 49.6962 30.175 52.163 31.676 54.486C34.1596 54.7296 36.7715 54.8624 39.5 54.8624ZM56.8267 35.5639C57.9376 32.5913 58.857 29.6725 59.5581 26.8809C57.037 26.1106 54.2523 25.4741 51.2354 25.0078C52.2506 26.6834 53.2391 28.4204 54.1901 30.2178C55.1321 31.9944 56.008 33.7808 56.8267 35.5639ZM22.1684 35.565C22.986 33.7819 23.8629 31.9955 24.803 30.2178C25.755 28.4204 26.7445 26.6845 27.7606 25.0089C24.7438 25.4741 21.959 26.1117 19.438 26.882C20.1391 29.6736 21.0584 32.5913 22.1684 35.565ZM62.3982 51.1557C70.3732 48.1534 75.05 43.7422 75.05 39.5C75.05 35.2578 70.3732 30.8466 62.3982 27.8443C61.4571 31.5807 60.1575 35.5069 58.5272 39.4989C60.1575 43.492 61.4571 47.4182 62.3982 51.1557ZM16.5999 51.1546C17.54 47.4193 18.8385 43.4931 20.4689 39.5022C18.8385 35.5102 17.539 31.5829 16.5989 27.8465C8.62483 30.8488 3.95 35.2589 3.95 39.5C3.95 43.7422 8.62581 48.1523 16.5999 51.1546ZM51.2354 53.9922C54.2523 53.527 57.037 52.8905 59.5581 52.1191C58.856 49.3275 57.9366 46.4087 56.8267 43.435C56.008 45.2181 55.1311 47.0045 54.1901 48.7822C53.2391 50.5796 52.2506 52.3166 51.2354 53.9922ZM27.7576 53.9911C26.7425 52.3155 25.754 50.5796 24.802 48.7833C23.8619 47.0067 22.986 45.2214 22.1684 43.4394C21.0584 46.4109 20.1401 49.3286 19.4389 52.1191C21.959 52.8883 24.7428 53.5248 27.7576 53.9911ZM24.1681 74.6173C27.8603 74.6173 32.5431 71.7972 37.3532 67.0305C34.8716 64.2993 32.4107 61.1313 30.0575 57.6079C25.9663 57.1261 22.1555 56.3339 18.723 55.286C17.6525 60.6606 17.46 65.4098 18.3063 68.9234C18.8771 71.2936 19.8843 72.9472 21.2984 73.8393C22.1161 74.3562 23.0828 74.6173 24.1681 74.6173ZM54.8329 74.6107C55.9182 74.6107 56.883 74.3496 57.7036 73.8328C59.1157 72.9428 60.12 71.2925 60.6898 68.9245C61.5371 65.4098 61.3445 60.6606 60.274 55.2871C56.8405 56.335 53.0288 57.1272 48.9366 57.609C46.5863 61.1313 44.1264 64.2982 41.6478 67.0294C46.4579 71.7917 51.1407 74.6097 54.8329 74.6107ZM39.5 64.7821C41.3338 62.7587 43.1666 60.473 44.953 57.9722C43.1745 58.0896 41.4385 58.3376 39.582 58.3376C37.7245 58.3376 35.8225 58.0896 34.0431 57.9722C35.8304 60.4741 37.6652 62.7598 39.5 64.7821ZM23.8145 0.0757149C22.038 0.0757149 20.7681 0.446607 19.3481 1.34092C16.9791 2.83436 15.3438 5.3911 14.4886 8.94091C13.5406 12.877 13.6226 18.0508 14.7217 23.9533C5.35126 27.6369 0 33.2727 0 39.5C0 45.7284 5.35225 51.3631 14.7226 55.0467C13.6236 60.9492 13.5416 66.123 14.4906 70.0591C15.3448 73.6067 16.9791 76.1634 19.3501 77.6591C20.7721 78.5545 22.4804 78.9353 24.256 78.9353C28.6869 78.9353 33.887 76.1536 39.501 70.7427C45.1139 76.1481 50.402 78.9989 54.8319 79C56.6084 79 58.2299 78.5468 59.6519 77.6514C62.019 76.1602 63.6523 73.6067 64.5065 70.0613C65.4554 66.1241 65.3735 60.9503 64.2744 55.0489C73.6468 51.3642 79 45.7284 79 39.5C79 33.2716 73.6477 27.6358 64.2754 23.9522C65.3755 18.0486 65.4564 12.8748 64.5074 8.93872C63.6523 5.3933 62.018 2.83985 59.6499 1.3486C58.2289 0.454288 56.6075 0 54.8319 0C50.403 0 45.1159 2.85192 39.502 8.25948C33.887 2.84753 28.5743 0.0724227 24.1424 0.0724227L23.8145 0.0757149ZM19.4735 22.3567C19.0173 19.8065 18.7111 17.4166 18.6944 15.3207C18.6795 13.4333 18.9126 11.7906 19.2572 10.3597C19.7579 8.28362 20.6081 6.85492 21.7842 6.11313C22.4518 5.69177 23.2655 5.40646 24.177 5.40646C27.3182 5.40646 31.4519 7.79641 35.9114 12.0277C33.7182 14.5218 31.5743 17.3156 29.5262 20.3508C25.9861 20.7897 22.6108 21.4624 19.4735 22.3567ZM43.0925 12.0298C47.5511 7.8019 51.6946 5.48657 54.8319 5.48657C55.7444 5.48657 56.5472 5.70054 57.2157 6.12191C58.3899 6.8615 59.2391 8.28691 59.7388 10.3586C60.6019 13.4509 60.4903 17.5614 59.5235 22.3556C56.3863 21.4624 53.012 20.7886 49.4728 20.3519C47.4257 17.3178 45.2838 14.524 43.0925 12.0298ZM36.2146 19.8142C37.2969 18.3877 38.396 17.038 39.501 15.7783C40.606 17.038 41.7041 18.3877 42.7854 19.8142C41.6804 19.7703 40.5813 19.7484 39.5 19.7484C38.4187 19.7484 37.3206 19.7703 36.2146 19.8142ZM32.2172 25.5641C34.5921 25.3457 37.0392 25.1899 39.5 25.1899C41.9599 25.1899 44.4069 25.3457 46.7808 25.5641C48.1949 27.7796 49.5419 30.0916 50.7861 32.4432C51.9929 34.7234 53.1295 37.0947 54.1664 39.4989C53.1285 41.9042 51.9919 44.2766 50.7852 46.5568C49.5399 48.9095 48.194 51.2204 46.7799 53.4359C44.4069 53.6543 41.9599 53.9472 39.5 53.9472C37.0382 53.9472 34.5902 53.6532 32.2142 53.4348C30.7991 51.2204 29.4522 48.9084 28.2069 46.5557C27.0002 44.2766 25.8646 41.9053 24.8277 39.5C25.8646 37.0947 27.0012 34.7223 28.2079 32.4421C29.4542 30.0905 30.8021 27.7785 32.2172 25.5641ZM56.7042 32.9425C56.1621 31.8254 55.6061 30.7281 55.0423 29.6615C54.4794 28.5982 53.8898 27.5305 53.2796 26.4694C55.0314 26.8008 56.721 27.1969 58.3297 27.6545C57.8685 29.3729 57.3244 31.1418 56.7042 32.9425ZM20.6664 27.6545C22.275 27.1969 23.9647 26.8008 25.7165 26.4694C25.1052 27.5305 24.5157 28.5982 23.9528 29.6604C23.3889 30.727 22.833 31.8243 22.2908 32.9414C21.6707 31.1429 21.1276 29.374 20.6664 27.6545ZM59.6104 39.4989C61.0078 36.0292 62.1651 32.5946 63.0568 29.2654C69.8735 32.0295 74.0625 35.9019 74.0625 39.5C74.0625 43.0981 69.8735 46.9705 63.0568 49.7346C62.1641 46.4043 61.0078 42.9686 59.6104 39.4989ZM15.9402 49.7335C9.12549 46.9694 4.9375 43.097 4.9375 39.5C4.9375 35.903 9.12549 32.0306 15.9392 29.2665C16.831 32.5968 17.9873 36.0314 19.3846 39.5011C17.9883 42.9697 16.8319 46.4043 15.9402 49.7335ZM53.2786 52.5317C53.8889 51.4695 54.4794 50.4018 55.0413 49.3396C55.6061 48.273 56.1621 47.1746 56.7042 46.0575C57.3244 47.8582 57.8675 49.6282 58.3297 51.3477C56.72 51.8031 55.0304 52.2003 53.2786 52.5317ZM20.6674 51.3455C21.1286 49.6271 21.6717 47.8593 22.2908 46.0608C22.832 47.1768 23.3879 48.2741 23.9518 49.3396C24.5137 50.4018 25.1032 51.4684 25.7145 52.5306C23.9637 52.1981 22.275 51.802 20.6674 51.3455ZM24.1681 73.52C23.2556 73.52 22.4538 73.306 21.7852 72.8847C20.6101 72.1429 19.7599 70.7153 19.2602 68.6392C18.4396 65.5173 18.5324 61.4057 19.4755 56.6422C22.6118 57.5354 25.9851 58.2092 29.5233 58.6459C31.5723 61.6811 33.7162 64.476 35.9104 66.9723C31.4519 71.2047 27.3073 73.5211 24.1681 73.52ZM49.4718 58.6481C53.011 58.2103 56.3853 57.5376 59.5226 56.6444C60.6137 61.8457 60.6997 65.9913 59.7368 68.6403C59.2382 70.7131 58.3899 72.1385 57.2167 72.877C56.5472 73.2984 55.7454 73.5123 54.8339 73.5123C51.6937 73.5123 47.5481 71.197 43.0906 66.9713C45.2828 64.4771 47.4247 61.6833 49.4718 58.6481ZM39.5 63.2239C38.394 61.9642 37.2939 60.6134 36.2116 59.1858C37.3176 59.2297 38.4177 59.2516 39.5 59.2516C40.5813 59.2516 41.6804 59.2297 42.7854 59.1858C41.7041 60.6134 40.605 61.9642 39.5 63.2239Z" fill="black"/>
</svg>
