<svg width="87" height="87" viewBox="0 0 87 87" fill="none" xmlns="http://www.w3.org/2000/svg">
<g filter="url(#filter0_d_103_31)">
<path d="M63.5867 2.16072L63.2552 1.51013H23.7448L23.289 2.36984L4.20719 39.0816L4 39.4998L4.20719 39.9181L23.3097 76.6298L23.7448 77.4663H63.2552L63.566 76.8622L83 39.4998L63.5867 2.16072ZM58.262 54.8351C54.3876 59.6681 49.0215 62.131 43.6347 62.131C38.9316 62.131 34.2284 60.2489 30.4784 56.4616C22.4188 48.3292 21.7558 34.3416 29.0281 25.3031C29.5875 24.606 30.1883 23.9322 30.8099 23.3281C32.1151 22.0734 34.0834 22.2592 35.2022 23.6998C36.321 25.1637 36.176 27.371 34.8707 28.6257C34.4356 29.044 34.0212 29.4854 33.6276 29.9734C28.6758 36.1539 29.1317 45.7269 34.6428 51.2801C40.154 56.8566 48.69 56.3454 53.6418 50.1648C58.6142 43.9842 58.1584 34.4113 52.6473 28.8581C51.3627 27.5569 51.2591 25.3495 52.4194 23.9322C53.5589 22.4916 55.5272 22.3754 56.8117 23.6766C64.8712 31.8089 65.5135 45.7966 58.262 54.8351ZM46.7425 19.7498V36.0145C46.7425 37.9431 45.3543 39.4998 43.6347 39.4998C41.9358 39.4998 40.5269 37.9431 40.5269 36.0145V19.7498C40.5269 17.8213 41.9358 16.2645 43.6347 16.2645C45.3543 16.2645 46.7425 17.8213 46.7425 19.7498Z" fill="black"/>
<path d="M81.1354 31.8324L68.2898 7.4353C67.1296 5.22794 65.4928 3.41559 63.5867 2.16088C63.2552 1.90529 62.903 1.69618 62.5508 1.51029C60.7483 0.534412 58.7386 0 56.6874 0H30.5198C28.448 0 26.459 0.534412 24.6565 1.51029C24.1799 1.76588 23.7241 2.04471 23.289 2.37C21.528 3.62471 20.0155 5.34412 18.9174 7.4353L6.07189 31.8324C4.89093 34.0862 4.26937 36.5724 4.20721 39.0818V39.9182C4.26937 42.4276 4.89093 44.9138 6.07189 47.1677L18.9174 71.5647C20.0155 73.6559 21.528 75.3753 23.3098 76.63C23.7241 76.9553 24.1592 77.2109 24.615 77.4665C26.4383 78.4656 28.4273 79 30.5198 79H56.6874C58.7593 79 60.769 78.4656 62.5922 77.4665C62.9237 77.2806 63.2552 77.0947 63.566 76.8624C65.4928 75.5844 67.1296 73.7953 68.2898 71.5647L81.1354 47.1677C82.3785 44.7977 83 42.1488 83 39.5C83 36.8512 82.3785 34.2024 81.1354 31.8324ZM56.6874 76.6765H30.5198C26.5004 76.6765 22.7504 74.26 20.6992 70.4029L7.85369 46.0059C5.74039 41.9862 5.74039 37.0138 7.85369 32.9941L20.6992 8.59706C22.7504 4.74 26.5004 2.32353 30.5198 2.32353H56.6874C60.7068 2.32353 64.4569 4.74 66.508 8.59706L79.3536 32.9941C81.4461 37.0138 81.4461 41.9862 79.3536 46.0059L66.508 70.4029C64.4569 74.26 60.7068 76.6765 56.6874 76.6765Z" fill="black"/>
</g>
<defs>
<filter id="filter0_d_103_31" x="0" y="0" width="87" height="87" filterUnits="userSpaceOnUse" color-interpolation-filters="sRGB">
<feFlood flood-opacity="0" result="BackgroundImageFix"/>
<feColorMatrix in="SourceAlpha" type="matrix" values="0 0 0 0 0 0 0 0 0 0 0 0 0 0 0 0 0 0 127 0" result="hardAlpha"/>
<feOffset dy="4"/>
<feGaussianBlur stdDeviation="2"/>
<feComposite in2="hardAlpha" operator="out"/>
<feColorMatrix type="matrix" values="0 0 0 0 0 0 0 0 0 0 0 0 0 0 0 0 0 0 0.25 0"/>
<feBlend mode="normal" in2="BackgroundImageFix" result="effect1_dropShadow_103_31"/>
<feBlend mode="normal" in="SourceGraphic" in2="effect1_dropShadow_103_31" result="shape"/>
</filter>
</defs>
</svg>
